# xmcd
#
# Track frame offsets:
#	150
#	19116
#	38349
#	54218
#	75201
#	92976
#	111164
#	128860
#	147266
#	164446
#	178291
#	202061
#
# Disc length: 2908 seconds
# Revision: 0
# Processed by: cddbd v1.5.2PL0 Copyright (c) Steve Scherf et al.
# Submitted via: dBpowerAMP V12.0
#
DISCID=9a0b5a0c
DTITLE=Various Artist - Holy Hip Hop: Taking Gospel To the Streets, Vol. 10
DYEAR=2010
DGENRE=Gospel/Hip Hop
TTITLE0=Royalty - Devil Tried To Take My Soul
TTITLE1=Bari Tunstill - The Warning
TTITLE2=Damion Orlando - Never
TTITLE3=Brinson Wright - Breaking Down
TTITLE4=Dale J. Evans - Favor
TTITLE5=Soulja K - Lean Back
TTITLE6=D King - Stay Focused (Remix)
TTITLE7=Chozen - Underground
TTITLE8=Vizion - Express
TTITLE9=Soulja K - Lose Control
TTITLE10=Vellvett - Free
TTITLE11=Kingdom Sonz - Blow The Whistle
EXTD=
EXTT0=
EXTT1=
EXTT2=
EXTT3=
EXTT4=
EXTT5=
EXTT6=
EXTT7=
EXTT8=
EXTT9=
EXTT10=
EXTT11=
PLAYORDER=
